<svg width="118" height="25" viewBox="0 0 118 25" fill="none" xmlns="http://www.w3.org/2000/svg"><rect width="118" height="24.2" rx="3.5" fill="#C51718"/><path d="M10.713 5.268c1.323 0 2.34.343 3.052 1.03.724.674 1.086 1.579 1.086 2.715 0 .374-.056.712-.168 1.011-.1.3-.237.568-.412.805a3.023 3.023 0 01-.543.58c-.187.15-.362.27-.524.356.2.1.412.231.636.394.225.15.425.343.6.58.174.237.318.524.43.861.125.325.187.712.187 1.161 0 .625-.106 1.174-.318 1.648-.2.475-.48.874-.843 1.199a3.781 3.781 0 01-1.292.749c-.499.162-1.048.243-1.647.243h-5.58V5.268h5.336zM7.98 13.001v3.277h2.734c.587 0 1.024-.156 1.31-.468.288-.312.432-.705.432-1.18 0-.462-.144-.849-.431-1.16-.287-.313-.724-.469-1.31-.469H7.978zm0-5.411v3.09h2.566c.561 0 .986-.138 1.273-.412.287-.288.43-.668.43-1.143 0-.462-.143-.83-.43-1.104-.287-.288-.712-.431-1.273-.431H7.979zm18.504 0h-6.179v3.127h5.28v2.322h-5.28v3.24h6.18V18.6H17.7V5.268h8.782V7.59zm8.641 2.977l4.737 8.033H36.81l-3.426-6.067-1.742 2.06V18.6H29.04V5.268h2.602v5.805l4.719-5.805h3.183l-4.419 5.3zm8.988 8.033H41.51V5.268h2.602V18.6zm9.75-4.382c0 .737-.132 1.386-.394 1.948a3.91 3.91 0 01-1.03 1.404 4.441 4.441 0 01-1.498.861 5.59 5.59 0 01-1.778.281c-.724 0-1.355-.1-1.892-.3-.524-.211-1.036-.567-1.535-1.066l1.723-1.704c.224.224.455.405.692.543.238.137.575.206 1.012.206.649 0 1.16-.188 1.535-.562.374-.375.562-.949.562-1.723V5.268h2.602v8.95zm8.983-3.65l4.738 8.032H64.53l-3.427-6.067-1.741 2.06V18.6H56.76V5.268h2.603v5.805l4.718-5.805h3.183l-4.419 5.3zM83.32 18.6h-2.603v-5.58h-4.531v5.58h-2.603V5.268h2.603v5.43h4.53v-5.43h2.604V18.6zm5.702 0H86.42V5.268h2.603V18.6zm11.903-11.01h-6.18v3.127h5.281v2.322h-5.28v3.24h6.179V18.6h-8.782V5.268h8.782V7.59zm7.779-2.322c.687 0 1.299.112 1.835.337.537.212.986.506 1.349.88.374.362.655.793.842 1.292.2.487.3 1.011.3 1.573 0 .474-.069.905-.206 1.292-.125.375-.3.705-.525.992a3.704 3.704 0 01-.786.75 3.75 3.75 0 01-.917.467l2.977 5.749h-3.015l-2.603-5.318h-1.872V18.6h-2.603V5.268h5.224zm-2.621 2.322v3.501h2.472c.574 0 1.029-.162 1.366-.486.337-.325.506-.75.506-1.274s-.169-.942-.506-1.254c-.337-.325-.792-.487-1.366-.487h-2.472z" fill="#fff"/></svg>