<svg width="303" height="125" viewBox="0 0 303 125" fill="none" xmlns="http://www.w3.org/2000/svg"><g clip-path="url(#clip0_8251_15856)"><g clip-path="url(#clip1_8251_15856)"><path d="M13.375 26.75c7.387 0 13.375-5.988 13.375-13.375S20.762 0 13.375 0 0 5.988 0 13.375 5.988 26.75 13.375 26.75z" fill="#fff"/><path d="M11.396 21.07c-1.876 0-3.403-1.425-3.403-3.174 0-1.024.52-1.928 1.322-2.508V7.49c0-1.032.896-1.876 2.004-1.876h.137c1.109 0 2.013.844 2.013 1.876v7.908c.802.58 1.322 1.484 1.322 2.508 0 1.748-1.518 3.173-3.395 3.173m3.19-6.15V7.489c0-1.612-1.399-2.917-3.13-2.917h-.137c-1.723 0-3.13 1.305-3.13 2.917v7.439c-.819.759-1.322 1.808-1.322 2.977 0 2.32 2.03 4.213 4.52 4.213 2.492 0 4.522-1.893 4.522-4.213 0-1.16-.504-2.21-1.323-2.977z" fill="#202B78"/><path d="M11.396 19.193c-.767 0-1.39-.58-1.39-1.297 0-.716.623-1.297 1.39-1.297.768 0 1.39.58 1.39 1.297s-.622 1.297-1.39 1.297zm.563-3.574v-4.274h-1.117v4.274c-1.117.238-1.953 1.168-1.953 2.277 0 1.297 1.126 2.346 2.508 2.346 1.381 0 2.507-1.05 2.507-2.346 0-1.109-.836-2.039-1.953-2.277M19.982 12.664c-.17 1.031-.88 1.524-1.767 1.524-.571 0-.965-.178-1.3-.513-.48-.48-.48-1.077-.48-1.865s0-1.386.48-1.865c.335-.335.729-.513 1.3-.513.887 0 1.596.493 1.767 1.524h-1.169c-.072-.263-.217-.5-.598-.5-.21 0-.368.086-.453.198-.105.138-.177.302-.177 1.156 0 .854.072 1.018.177 1.156.085.112.243.197.453.197.381 0 .526-.236.598-.5h1.17zM23.02 10.588c0 .67-.538 1.209-1.208 1.209-.67 0-1.209-.539-1.209-1.209s.539-1.215 1.209-1.215 1.208.545 1.208 1.215zm-.69 0a.523.523 0 00-.525-.525.512.512 0 00-.512.525c0 .296.23.526.519.526.289 0 .519-.23.519-.526z" fill="#202B78"/></g></g><path d="M9.464 44.005H7.657v-5.382l-1.768 3.289H4.667l-1.781-3.29v5.383H1.079v-9.256H2.86l2.418 4.797 2.405-4.797h1.781v9.256zm5.26-9.334c.536 0 1.004.086 1.403.26.399.164.758.403 1.08.715.233.225.41.463.532.715.13.251.221.528.273.832.06.294.095.624.104.988.017.355.026.754.026 1.196 0 .442-.009.845-.026 1.209a5.76 5.76 0 01-.104.988 2.848 2.848 0 01-.273.819 2.52 2.52 0 01-.533.715 3.59 3.59 0 01-1.079.728c-.399.164-.867.247-1.404.247-.537 0-1.005-.083-1.404-.247a3.59 3.59 0 01-1.079-.728 2.963 2.963 0 01-.546-.728 3.5 3.5 0 01-.273-.82 8.231 8.231 0 01-.104-.987 49.314 49.314 0 01-.013-1.196c0-.442.004-.841.013-1.196.017-.356.052-.68.104-.975.06-.304.152-.581.273-.832.13-.252.312-.494.546-.728.32-.312.68-.55 1.08-.715.398-.174.866-.26 1.403-.26zm0 1.612a1.548 1.548 0 00-1.158.494c-.087.095-.16.203-.22.325-.062.112-.11.264-.144.455-.035.19-.06.433-.078.728-.009.286-.013.65-.013 1.092 0 .442.004.81.013 1.105.017.286.043.524.078.715.035.182.082.333.143.455.06.112.134.216.221.312.13.147.29.268.481.364.2.095.425.143.676.143.251 0 .472-.048.663-.143a1.564 1.564 0 00.715-.676 1.76 1.76 0 00.143-.455c.035-.191.056-.43.065-.715.017-.295.026-.663.026-1.105 0-.442-.009-.806-.026-1.092a5.019 5.019 0 00-.065-.728 1.565 1.565 0 00-.143-.455 1.432 1.432 0 00-.22-.325 1.383 1.383 0 00-.495-.351 1.465 1.465 0 00-.663-.143zm7.065 6.11h4.2v1.612h-6.007v-9.256h1.807v7.644zm11.768-6.032h-4.29v2.17h3.666v1.613h-3.666v2.249h4.29v1.612H27.46v-9.256h6.097v1.612zm8.859 7.644h-1.599l-3.679-5.655v5.655h-1.807v-9.256h1.612l3.666 5.655v-5.655h1.807v9.256zm3.977-1.612h4.199v1.612h-6.006v-9.256h1.807v7.644zm12.82 1.612h-1.898l-.546-1.638h-3.276l-.559 1.638h-1.898l3.38-9.256h1.417l3.38 9.256zm-5.226-3.16h2.275l-1.13-3.353-1.145 3.354zm13.439 3.16h-1.6l-3.678-5.655v5.655H60.34v-9.256h1.612l3.666 5.655v-5.655h1.807v9.256zm5.51-9.256c.633 0 1.175.117 1.626.35.459.226.849.56 1.17 1.002.138.199.247.411.325.637.086.216.147.459.182.728.034.26.056.55.065.87a39.057 39.057 0 010 2.093c-.01.313-.03.603-.065.872-.035.26-.096.502-.182.728a2.678 2.678 0 01-.325.624c-.321.442-.711.78-1.17 1.014-.451.225-.993.338-1.625.338h-3.341v-9.256h3.34zm-1.533 1.612v6.032h1.378c.598 0 1.048-.191 1.352-.572.086-.104.151-.217.195-.338.052-.13.09-.29.117-.481.026-.191.043-.416.052-.676.008-.269.013-.585.013-.95 0-.363-.005-.675-.013-.935a6.36 6.36 0 00-.052-.676 2.057 2.057 0 00-.117-.481 1.072 1.072 0 00-.195-.351c-.304-.382-.754-.572-1.352-.572h-1.378zM5.136 51.771c.661 0 1.243.101 1.744.304.501.203.928.475 1.28.816.352.33.63.715.832 1.152.213.437.357.896.432 1.376h-2.24c-.256-1.11-.939-1.664-2.048-1.664-.31 0-.581.059-.816.176-.235.107-.432.25-.592.432a1.76 1.76 0 00-.272.4 1.926 1.926 0 00-.176.56 7.686 7.686 0 00-.096.896c-.01.352-.016.8-.016 1.344s.005.997.016 1.36c.021.352.053.645.096.88.043.235.101.427.176.576a1.765 1.765 0 00.864.832c.235.107.507.16.816.16.341 0 .645-.053.912-.16.267-.117.49-.277.672-.48.181-.213.31-.443.384-.688.085-.256.128-.533.128-.832v-.416H5.136v-1.872H9.44v1.664c0 .821-.085 1.499-.256 2.032a3.642 3.642 0 01-.832 1.44c-.459.48-.96.816-1.504 1.008a5.016 5.016 0 01-1.712.288c-.65 0-1.221-.101-1.712-.304a4.42 4.42 0 01-1.328-.896 3.646 3.646 0 01-.672-.896 4.308 4.308 0 01-.336-1.008 10.141 10.141 0 01-.128-1.216c-.01-.437-.016-.928-.016-1.472 0-.544.005-1.035.016-1.472.021-.437.064-.837.128-1.2.075-.373.187-.715.336-1.024.16-.31.384-.608.672-.896a4.18 4.18 0 011.328-.88c.49-.213 1.061-.32 1.712-.32zm10.407 0c.661 0 1.237.107 1.728.32.49.203.933.496 1.328.88a3.1 3.1 0 01.656.88c.16.31.272.65.336 1.024.074.363.117.768.128 1.216.021.437.032.928.032 1.472 0 .544-.011 1.04-.032 1.488a7.08 7.08 0 01-.128 1.216 3.507 3.507 0 01-.336 1.008c-.15.31-.368.603-.656.88a4.42 4.42 0 01-1.328.896c-.491.203-1.067.304-1.728.304-.662 0-1.238-.101-1.728-.304a4.422 4.422 0 01-1.328-.896 3.646 3.646 0 01-.672-.896 4.311 4.311 0 01-.336-1.008 10.155 10.155 0 01-.128-1.216c-.011-.437-.016-.928-.016-1.472 0-.544.005-1.035.016-1.472.021-.437.064-.837.128-1.2.074-.373.186-.715.336-1.024.16-.31.384-.608.672-.896a4.181 4.181 0 011.328-.88c.49-.213 1.066-.32 1.728-.32zm0 1.984a1.904 1.904 0 00-1.424.608c-.107.117-.198.25-.272.4a1.929 1.929 0 00-.176.56 7.717 7.717 0 00-.096.896c-.011.352-.016.8-.016 1.344s.005.997.016 1.36c.021.352.053.645.096.88.042.224.101.41.176.56.074.139.165.267.272.384.16.181.357.33.592.448.245.117.522.176.832.176.309 0 .581-.059.816-.176a1.927 1.927 0 00.88-.832c.074-.15.133-.336.176-.56.042-.235.069-.528.08-.88.021-.363.032-.816.032-1.36 0-.544-.011-.992-.032-1.344a6.161 6.161 0 00-.08-.896 1.923 1.923 0 00-.176-.56 1.757 1.757 0 00-.272-.4 1.699 1.699 0 00-.608-.432 1.8 1.8 0 00-.816-.176zm14.68 5.6c0 .608-.111 1.157-.335 1.648-.214.49-.513.912-.897 1.264a4.053 4.053 0 01-1.328.8 4.655 4.655 0 01-1.648.288 4.655 4.655 0 01-1.648-.288 4.287 4.287 0 01-1.328-.8 3.795 3.795 0 01-.88-1.264 4.093 4.093 0 01-.32-1.648v-7.488h2.225v7.408c0 .65.17 1.163.512 1.536.351.373.831.56 1.44.56.608 0 1.088-.187 1.44-.56.362-.373.544-.885.544-1.536v-7.408h2.224v7.488zm6.592-7.488c.779 0 1.445.144 2 .432a3.876 3.876 0 011.44 1.232c.17.245.304.507.4.784.107.267.181.565.224.896.043.32.07.677.08 1.072a48.101 48.101 0 010 2.576c-.01.384-.037.741-.08 1.072-.043.32-.117.619-.224.896a3.3 3.3 0 01-.4.768c-.395.544-.875.96-1.44 1.248-.555.277-1.221.416-2 .416h-4.112V51.867h4.112zm-1.888 1.984v7.424h1.696c.736 0 1.29-.235 1.664-.704.107-.128.187-.267.24-.416.064-.16.112-.357.144-.592.032-.235.053-.512.064-.832.01-.33.016-.72.016-1.168 0-.448-.005-.832-.016-1.152a7.825 7.825 0 00-.064-.832 2.531 2.531 0 00-.144-.592 1.32 1.32 0 00-.24-.432c-.373-.47-.928-.704-1.664-.704h-1.696zm11.715-2.08c.79 0 1.477.101 2.064.304a4.322 4.322 0 011.616 1.024l-1.408 1.392a2.371 2.371 0 00-1.008-.624c-.363-.107-.806-.16-1.328-.16-.598 0-1.04.144-1.328.432a1.348 1.348 0 00-.432 1.008c0 .33.112.603.336.816.117.107.256.197.416.272.17.075.379.128.624.16l1.36.208c.523.075.954.181 1.296.32.341.139.634.33.88.576.31.288.533.635.672 1.04.139.395.208.848.208 1.36 0 .555-.107 1.045-.32 1.472-.213.427-.512.79-.896 1.088a4.181 4.181 0 01-1.344.672 5.922 5.922 0 01-1.664.224c-.864 0-1.638-.107-2.32-.32-.672-.224-1.285-.619-1.84-1.184l1.44-1.44c.363.363.779.613 1.248.752.47.139.965.208 1.488.208.672 0 1.178-.123 1.52-.368.341-.245.512-.597.512-1.056 0-.395-.117-.71-.352-.944a1.178 1.178 0 00-.4-.24 3.208 3.208 0 00-.624-.144l-1.36-.208c-.97-.15-1.707-.464-2.208-.944-.544-.523-.816-1.27-.816-2.24 0-.512.09-.976.272-1.392.181-.427.443-.79.784-1.088.341-.31.757-.55 1.248-.72a5.046 5.046 0 011.664-.256zm13.565 2.08h-5.28v2.672h4.512v1.984h-4.512v2.768h5.28v1.984h-7.504V51.867h7.504v1.984zm11.102 2.544l4.048 6.864H72.75l-2.928-5.184-1.488 1.76v3.424H66.11V51.867h2.224v4.96l4.032-4.96h2.72l-3.776 4.528zm14.632 6.864h-2.337l-.671-2.016H78.9l-.688 2.016h-2.336l4.16-11.392h1.745l4.16 11.392zm-6.433-3.888h2.8l-1.392-4.128-1.407 4.128zm16.667 3.888h-2.336l-.672-2.016h-4.032l-.688 2.016H86.11l4.16-11.392h1.744l4.16 11.392zm-6.432-3.888h2.8l-1.392-4.128-1.408 4.128zm11.258-7.6c.79 0 1.478.101 2.064.304a4.313 4.313 0 011.616 1.024l-1.408 1.392a2.367 2.367 0 00-1.008-.624c-.362-.107-.805-.16-1.328-.16-.597 0-1.04.144-1.328.432a1.348 1.348 0 00-.432 1.008c0 .33.112.603.336.816.118.107.256.197.416.272.171.075.379.128.624.16l1.36.208c.523.075.955.181 1.296.32.342.139.635.33.88.576.31.288.534.635.672 1.04.139.395.208.848.208 1.36 0 .555-.106 1.045-.32 1.472-.213.427-.512.79-.896 1.088a4.173 4.173 0 01-1.344.672 5.919 5.919 0 01-1.664.224c-.864 0-1.637-.107-2.32-.32-.672-.224-1.285-.619-1.84-1.184l1.44-1.44c.363.363.779.613 1.248.752.47.139.966.208 1.488.208.672 0 1.179-.123 1.52-.368.342-.245.512-.597.512-1.056 0-.395-.117-.71-.352-.944a1.167 1.167 0 00-.4-.24 3.183 3.183 0 00-.624-.144l-1.36-.208c-.97-.15-1.706-.464-2.208-.944-.544-.523-.816-1.27-.816-2.24 0-.512.09-.976.272-1.392.182-.427.443-.79.784-1.088.342-.31.758-.55 1.248-.72a5.047 5.047 0 011.664-.256zm13.604 9.872h-4.656v-1.968l3.904-7.808h2.272l-3.904 7.808h2.384v-2.128h1.984v2.128h1.056v1.968h-1.056v1.616h-1.984v-1.616zm7.888 1.712c-.512 0-.992-.075-1.44-.224a3.4 3.4 0 01-1.152-.656 3.211 3.211 0 01-.768-1.056c-.192-.427-.288-.917-.288-1.472 0-.352.042-.661.128-.928.096-.267.213-.501.352-.704.138-.213.288-.395.448-.544.17-.15.336-.277.496-.384a2.682 2.682 0 01-.448-.368c-.15-.15-.288-.32-.416-.512a3.334 3.334 0 01-.304-.656 2.845 2.845 0 01-.112-.832c0-.501.09-.95.272-1.344a3.08 3.08 0 01.768-1.024c.32-.288.688-.507 1.104-.656.426-.15.88-.224 1.36-.224a3.9 3.9 0 011.328.224c.426.15.8.368 1.12.656.32.277.57.619.752 1.024.192.395.288.843.288 1.344 0 .31-.043.587-.128.832a2.483 2.483 0 01-.304.656 2.787 2.787 0 01-.848.88c.16.107.325.235.496.384.17.15.325.33.464.544.138.203.25.437.336.704.096.267.144.576.144.928 0 .555-.096 1.045-.288 1.472a3.116 3.116 0 01-.784 1.056 3.39 3.39 0 01-1.168.656c-.438.15-.907.224-1.408.224zm0-1.872c.437 0 .805-.15 1.104-.448.309-.299.464-.672.464-1.12 0-.448-.155-.821-.464-1.12a1.475 1.475 0 00-1.104-.464c-.448 0-.822.155-1.12.464-.299.299-.448.672-.448 1.12 0 .448.149.821.448 1.12.298.299.672.448 1.12.448zm0-4.96c.405 0 .741-.133 1.008-.4.266-.277.4-.624.4-1.04 0-.416-.134-.757-.4-1.024a1.34 1.34 0 00-1.008-.416 1.39 1.39 0 00-1.024.416c-.267.267-.4.608-.4 1.024 0 .416.133.763.4 1.04.277.267.618.4 1.024.4zm9.663 1.184h2.56v1.952h-2.56v2.576h-1.952V59.66h-2.576v-1.952h2.576v-2.56h1.952v2.56zM4.72 69.771c.79 0 1.477.101 2.064.304A4.32 4.32 0 018.4 71.1l-1.408 1.392a2.37 2.37 0 00-1.008-.624c-.363-.107-.805-.16-1.328-.16-.597 0-1.04.144-1.328.432a1.348 1.348 0 00-.432 1.008c0 .33.112.603.336.816.117.107.256.197.416.272.17.075.379.128.624.16l1.36.208c.523.075.955.181 1.296.32.341.139.635.33.88.576.31.288.533.635.672 1.04.139.395.208.848.208 1.36 0 .555-.107 1.045-.32 1.472-.213.427-.512.79-.896 1.088a4.18 4.18 0 01-1.344.672 5.922 5.922 0 01-1.664.224c-.864 0-1.637-.107-2.32-.32-.672-.224-1.285-.619-1.84-1.184l1.44-1.44c.363.363.779.613 1.248.752.47.139.965.208 1.488.208.672 0 1.179-.123 1.52-.368.341-.245.512-.597.512-1.056 0-.395-.117-.71-.352-.944a1.177 1.177 0 00-.4-.24 3.207 3.207 0 00-.624-.144l-1.36-.208c-.97-.15-1.707-.464-2.208-.944-.544-.523-.816-1.27-.816-2.24 0-.512.09-.976.272-1.392.181-.427.443-.79.784-1.088.341-.31.757-.55 1.248-.72a5.046 5.046 0 011.664-.256zM18 71.851h-2.976v9.408H12.8v-9.408H9.824v-1.984H18v1.984zm10.02 5.504c0 .608-.112 1.157-.336 1.648a3.69 3.69 0 01-.896 1.264 4.054 4.054 0 01-1.328.8 4.655 4.655 0 01-1.648.288 4.655 4.655 0 01-1.648-.288 4.286 4.286 0 01-1.328-.8 3.794 3.794 0 01-.88-1.264 4.091 4.091 0 01-.32-1.648v-7.488h2.224v7.408c0 .65.171 1.163.512 1.536.352.373.832.56 1.44.56s1.088-.187 1.44-.56c.363-.373.544-.885.544-1.536v-7.408h2.224v7.488zm7.68-2.96l4.048 6.864H37.14l-2.928-5.184-1.488 1.76v3.424H30.5V69.867h2.224v4.96l4.032-4.96h2.72L35.7 74.395zm14.839 3.12c0 .63-.112 1.184-.336 1.664-.214.48-.507.88-.88 1.2-.363.32-.79.565-1.28.736-.48.16-.987.24-1.52.24-.619 0-1.158-.085-1.616-.256-.448-.181-.885-.485-1.312-.912l1.472-1.456c.192.192.39.347.592.464.203.117.49.176.864.176.554 0 .992-.16 1.312-.48.32-.32.48-.81.48-1.472v-7.552h2.224v7.648zm6.3-7.744c.662 0 1.238.107 1.729.32.49.203.933.496 1.328.88a3.1 3.1 0 01.655.88c.16.31.273.65.337 1.024.074.363.117.768.128 1.216.02.437.032.928.032 1.472 0 .544-.011 1.04-.032 1.488a7.09 7.09 0 01-.128 1.216 3.507 3.507 0 01-.337 1.008c-.149.31-.367.603-.656.88a4.42 4.42 0 01-1.328.896c-.49.203-1.066.304-1.727.304-.662 0-1.238-.101-1.729-.304a4.42 4.42 0 01-1.328-.896 3.646 3.646 0 01-.672-.896 4.311 4.311 0 01-.335-1.008 10.134 10.134 0 01-.129-1.216 60.74 60.74 0 01-.015-1.472c0-.544.005-1.035.016-1.472.02-.437.063-.837.127-1.2.075-.373.187-.715.337-1.024.16-.31.383-.608.671-.896a4.18 4.18 0 011.328-.88c.491-.213 1.067-.32 1.729-.32zm0 1.984a1.904 1.904 0 00-1.423.608 1.76 1.76 0 00-.272.4 1.926 1.926 0 00-.176.56 7.673 7.673 0 00-.097.896c-.01.352-.016.8-.016 1.344s.006.997.017 1.36c.02.352.053.645.096.88.042.224.1.41.175.56.075.139.166.267.273.384.16.181.357.33.592.448.245.117.522.176.831.176.31 0 .582-.059.817-.176a1.931 1.931 0 00.88-.832c.074-.15.133-.336.175-.56.043-.235.07-.528.08-.88a23.9 23.9 0 00.033-1.36c0-.544-.011-.992-.032-1.344a6.175 6.175 0 00-.08-.896 1.926 1.926 0 00-.177-.56 1.76 1.76 0 00-.271-.4 1.7 1.7 0 00-.608-.432 1.801 1.801 0 00-.816-.176zm15.193 9.504h-1.968l-4.528-6.96v6.96h-2.224V69.867h1.984l4.512 6.96v-6.96h2.224V81.26zm6.479-11.488c.661 0 1.243.101 1.744.304.501.203.928.475 1.28.816.352.33.63.715.832 1.152.213.437.357.896.432 1.376h-2.24c-.256-1.11-.939-1.664-2.048-1.664-.31 0-.581.059-.816.176-.235.107-.432.25-.592.432a1.76 1.76 0 00-.272.4 1.926 1.926 0 00-.176.56 7.673 7.673 0 00-.096.896c-.01.352-.016.8-.016 1.344s.005.997.016 1.36c.021.352.053.645.096.88.043.235.101.427.176.576a1.765 1.765 0 00.864.832c.235.107.507.16.816.16.341 0 .645-.053.912-.16.267-.117.49-.277.672-.48.181-.213.31-.443.384-.688.085-.256.128-.533.128-.832v-.416h-2.096v-1.872h4.304v1.664c0 .821-.085 1.499-.256 2.032a3.641 3.641 0 01-.832 1.44c-.459.48-.96.816-1.504 1.008a5.016 5.016 0 01-1.712.288c-.65 0-1.221-.101-1.712-.304a4.42 4.42 0 01-1.328-.896 3.646 3.646 0 01-.672-.896 4.311 4.311 0 01-.336-1.008 10.134 10.134 0 01-.128-1.216 60.74 60.74 0 01-.016-1.472c0-.544.005-1.035.016-1.472.021-.437.064-.837.128-1.2.075-.373.187-.715.336-1.024.16-.31.384-.608.672-.896a4.18 4.18 0 011.328-.88c.49-.213 1.061-.32 1.712-.32zM8.177 98.513h-.936l-4.914-7.422v7.422h-.988v-9.256h.936l4.914 7.397v-7.397h.988v9.256zm4.517-6.474c.866 0 1.507.183 1.923.546.425.365.637.893.637 1.587v4.341h-.935v-.61a2.246 2.246 0 01-.794.532c-.277.105-.628.156-1.053.156-.441 0-.797-.043-1.066-.13a1.913 1.913 0 01-.74-.454 1.409 1.409 0 01-.364-.573 2.287 2.287 0 01-.117-.727c0-.572.19-1.023.572-1.352.38-.33.931-.495 1.65-.495h1.912v-.61c0-.469-.126-.82-.378-1.053-.242-.234-.663-.352-1.26-.352-.408 0-.728.057-.962.17-.234.112-.451.303-.65.572L10.43 93c.278-.372.59-.624.937-.754.355-.138.797-.207 1.325-.207zm-.157 3.523c-.962 0-1.443.377-1.443 1.132 0 .372.117.65.351.831.235.174.611.26 1.131.26.27 0 .52-.021.755-.064.234-.053.455-.174.662-.365.217-.207.325-.576.325-1.105v-.689h-1.78zm6.09-3.444h1.364v.715h-1.365v3.939c0 .303.07.537.208.701.139.156.36.234.663.234h.494v.806h-.663c-.277 0-.52-.043-.728-.13a1.583 1.583 0 01-.507-.376 1.666 1.666 0 01-.299-.547 2.081 2.081 0 01-.104-.662v-3.966h-.806v-.714h.806v-1.963h.936v1.963zm8.203 6.395h-.923v-.715c-.226.26-.494.46-.806.599-.304.13-.637.194-1.001.194-.702 0-1.253-.199-1.651-.597-.442-.434-.663-1.032-.663-1.794v-4.082h.936v3.939c0 .572.138 1 .416 1.287.286.277.671.416 1.157.416.485 0 .87-.144 1.157-.43.294-.285.442-.71.442-1.273v-3.94h.936v6.396zm7.325 0h-.923v-.715c-.225.26-.494.46-.806.599-.303.13-.637.194-1.001.194-.702 0-1.253-.199-1.651-.597-.442-.434-.663-1.032-.663-1.794v-4.082h.936v3.939c0 .572.139 1 .416 1.287.286.277.671.416 1.157.416.485 0 .87-.144 1.157-.43.294-.285.442-.71.442-1.273v-3.94h.936v6.396zm5.076-6.474c.303 0 .576.044.82.13.25.087.489.243.714.469l-.689.701a1.707 1.707 0 00-.494-.364 1.518 1.518 0 00-.61-.103c-.235 0-.447.043-.638.13-.19.086-.35.208-.48.364a1.87 1.87 0 00-.313.546c-.07.207-.104.433-.104.675v3.926h-.936v-6.395h.936v.78a1.7 1.7 0 01.741-.624c.33-.156.68-.234 1.053-.234zm4.35 0c.355 0 .676.057.962.17.295.103.572.325.832.662v-.753h.923v6.59c0 .4-.06.763-.182 1.093a2.504 2.504 0 01-.52.87 2.339 2.339 0 01-.845.572 2.85 2.85 0 01-1.118.208c-.242 0-.46-.017-.65-.052a2.27 2.27 0 01-.546-.143 2.762 2.762 0 01-.494-.273 3.66 3.66 0 01-.48-.39l.61-.597c.113.103.221.194.325.272.113.078.225.143.338.195.122.061.252.104.39.13.139.026.3.039.481.039.312 0 .577-.052.793-.156.226-.104.407-.242.546-.416.148-.173.252-.38.312-.624.07-.234.104-.49.104-.767v-1c-.26.329-.537.55-.832.663a2.673 2.673 0 01-.962.169c-.33 0-.628-.053-.897-.157a1.906 1.906 0 01-.65-.415 2.357 2.357 0 01-.637-1.183 7.415 7.415 0 01-.143-1.483c0-.52.048-1.014.143-1.482.104-.468.316-.862.637-1.183.173-.173.395-.307.663-.403.269-.103.568-.155.897-.155zm.195.832c-.347 0-.628.07-.845.209-.208.138-.368.32-.48.546a2.212 2.212 0 00-.222.766 7.336 7.336 0 000 1.755c.035.286.108.542.221.767.113.217.273.395.481.534.217.138.498.208.845.208s.624-.07.832-.209a1.42 1.42 0 00.481-.532 2.33 2.33 0 00.221-.768 7.336 7.336 0 000-1.755 2.212 2.212 0 00-.22-.766 1.394 1.394 0 00-.482-.547c-.208-.138-.485-.207-.832-.207zm7.137-.831c.84 0 1.486.277 1.937.831.46.547.689 1.305.689 2.276v.415h-4.316c0 .703.156 1.249.468 1.639.32.38.793.572 1.417.572.372 0 .68-.057.923-.17.251-.12.502-.307.754-.558l.637.558c-.165.165-.33.308-.494.43a2.59 2.59 0 01-.52.311 3.022 3.022 0 01-.598.183 3.73 3.73 0 01-.728.064c-.425 0-.81-.064-1.157-.194a2.225 2.225 0 01-.884-.599 2.725 2.725 0 01-.56-1.014c-.13-.416-.194-.905-.194-1.469 0-1.048.234-1.854.702-2.418.468-.572 1.11-.858 1.924-.858zm0 .792c-.347 0-.65.087-.91.26a1.724 1.724 0 00-.585.703 1.885 1.885 0 00-.104.246c-.018.07-.035.144-.052.222a12.4 12.4 0 00-.026.26c0 .095-.005.208-.013.338h3.393l-.026-.339a2.076 2.076 0 00-.04-.26.916.916 0 00-.051-.22 4.528 4.528 0 00-.091-.248 1.689 1.689 0 00-.598-.701 1.54 1.54 0 00-.897-.26zm7.348-.792c.304 0 .577.043.82.13.25.086.489.242.714.468l-.689.701a1.706 1.706 0 00-.494-.364 1.518 1.518 0 00-.61-.103c-.235 0-.447.043-.638.13-.19.086-.35.208-.48.364a1.87 1.87 0 00-.313.546c-.069.207-.104.433-.104.675v3.926h-.936v-6.395h.936v.78a1.7 1.7 0 01.741-.624 2.43 2.43 0 011.053-.234zm3.678 6.473h-.936v-6.395h.936v6.395zm.065-8.216h-1.053v-1.052h1.053v1.052zm3.223 9.36c0 .243-.035.468-.104.676a1.4 1.4 0 01-.299.546c-.13.156-.299.278-.507.364-.2.087-.438.13-.715.13h-.676v-.819h.507c.33 0 .555-.078.676-.234.121-.156.182-.39.182-.701v-7.501h.936v7.54zm.065-9.36H64.24v-1.052h1.053v1.052zm5.03 1.743c.33 0 .629.051.897.155.269.096.49.23.663.404.156.155.286.337.39.545.104.209.182.43.234.663.06.234.1.481.117.742a7.45 7.45 0 01-.117 2.274c-.095.477-.303.88-.624 1.21a1.884 1.884 0 01-.663.415 2.67 2.67 0 01-.897.144c-.355 0-.68-.057-.975-.17-.286-.112-.563-.333-.832-.662v3.613h-.936v-9.255h.936v.754c.269-.33.546-.55.832-.663.286-.113.611-.17.975-.17zm-.195.831c-.355 0-.637.07-.845.209-.208.138-.373.32-.494.546a2.345 2.345 0 00-.22.78 7.777 7.777 0 00-.053.91c0 .311.017.615.052.91.035.294.109.554.221.78a1.5 1.5 0 00.494.546c.208.138.49.207.845.207.347 0 .624-.069.832-.207.217-.14.382-.321.494-.547.113-.225.186-.485.221-.78.035-.294.052-.597.052-.91 0-.311-.017-.615-.052-.91a2.345 2.345 0 00-.22-.78 1.36 1.36 0 00-.495-.546c-.208-.138-.485-.207-.832-.207zm5.628-.753h1.365v.715h-1.365v3.939c0 .303.07.537.208.701.139.156.36.234.663.234h.494v.806h-.663c-.277 0-.52-.043-.728-.13a1.583 1.583 0 01-.507-.376 1.666 1.666 0 01-.299-.547 2.081 2.081 0 01-.104-.662v-3.966h-.806v-.714h.806v-1.963h.936v1.963zm4.42 6.395h-1.221v-1.222h1.222v1.222zM2.168 108.168l.936-.568.224.384-.96.528.96.52-.224.392-.936-.568.032 1.096h-.464l.032-1.096-.928.568-.232-.392.96-.52-.96-.528.232-.384.928.568-.032-1.096H2.2l-.032 1.096zm4.713-1.096c.256 0 .491.04.704.12.22.08.406.192.56.336.16.144.283.32.369.528.085.203.128.432.128.688 0 .256-.043.488-.128.696a1.516 1.516 0 01-.368.528 1.635 1.635 0 01-.56.336 1.99 1.99 0 01-.705.12H5.37v2.344H4.76v-5.696h2.12zm-1.511.544v2.264h1.463c.358 0 .646-.093.864-.28.224-.192.337-.477.337-.856s-.113-.661-.337-.848c-.218-.187-.506-.28-.864-.28H5.37zm6.007 1.168a1.5 1.5 0 01.504.08c.154.053.3.149.44.288l-.424.432a1.052 1.052 0 00-.304-.224.93.93 0 00-.376-.064.942.942 0 00-.392.08.818.818 0 00-.296.224c-.08.096-.144.208-.192.336a1.308 1.308 0 00-.064.416v2.416h-.576v-3.936h.576v.48a1.05 1.05 0 01.456-.384c.202-.096.418-.144.648-.144zm2.263 3.984h-.576v-3.936h.576v3.936zm.04-5.056h-.648v-.648h.648v.648zm1.983 5.76c0 .149-.021.288-.064.416a.862.862 0 01-.496.56c-.123.053-.27.08-.44.08h-.416v-.504h.312c.203 0 .341-.048.416-.144.075-.096.112-.24.112-.432v-4.616h.576v4.64zm.04-5.76h-.648v-.648h.648v.648zm2.656 1.072c.288 0 .549.035.784.104.24.069.45.176.632.32l-.376.376a1.334 1.334 0 00-.48-.232 1.96 1.96 0 00-.568-.08c-.288 0-.507.059-.656.176a.556.556 0 00-.224.472c0 .176.056.309.168.4.112.091.29.149.536.176l.616.056c.17.016.328.045.472.088.144.043.266.107.368.192.101.08.178.184.232.312.058.128.088.285.088.472 0 .379-.147.675-.44.888-.294.208-.68.312-1.16.312-.336 0-.638-.043-.904-.128a1.822 1.822 0 01-.712-.44l.384-.384c.154.16.336.277.544.352.208.069.434.104.68.104.33 0 .586-.056.768-.168a.582.582 0 00.28-.528c0-.176-.051-.309-.152-.4-.102-.096-.27-.155-.504-.176l-.648-.056c-.384-.032-.678-.133-.88-.304-.198-.171-.296-.421-.296-.752 0-.181.034-.341.104-.48.074-.144.176-.264.304-.36.128-.101.28-.179.456-.232.176-.053.37-.08.584-.08zm2.041.048h.625l1.08 3.16 1.072-3.16h.623l-1.448 3.936h-.512l-1.44-3.936zm5.533-.048c.517 0 .914.171 1.192.512.282.336.424.803.424 1.4v.256h-2.657c0 .432.096.768.288 1.008.198.235.489.352.872.352.23 0 .42-.035.569-.104.154-.075.309-.189.463-.344l.393.344a2.754 2.754 0 01-.305.264 1.562 1.562 0 01-.688.304c-.133.027-.282.04-.448.04-.26 0-.498-.04-.712-.12a1.373 1.373 0 01-.544-.368 1.672 1.672 0 01-.344-.624 3.041 3.041 0 01-.12-.904c0-.645.145-1.141.433-1.488.288-.352.682-.528 1.184-.528zm0 .488c-.214 0-.4.053-.56.16a1.065 1.065 0 00-.36.432 1.144 1.144 0 00-.065.152l-.032.136-.015.16a3.2 3.2 0 01-.009.208h2.088a8.956 8.956 0 00-.015-.208 1.25 1.25 0 00-.024-.16.565.565 0 00-.032-.136 1.043 1.043 0 00-.424-.584.946.946 0 00-.553-.16zm4.522-.488a1.5 1.5 0 01.504.08c.154.053.301.149.44.288l-.424.432a1.052 1.052 0 00-.304-.224.929.929 0 00-.376-.064.942.942 0 00-.392.08.82.82 0 00-.296.224c-.08.096-.144.208-.192.336a1.308 1.308 0 00-.064.416v2.416h-.576v-3.936h.576v.48c.106-.165.258-.293.456-.384.202-.096.418-.144.648-.144zm2.677 0c.218 0 .416.035.592.104.181.064.352.2.512.408v-.464h.568v4.056c0 .245-.038.469-.112.672a1.54 1.54 0 01-.32.536 1.447 1.447 0 01-.52.352 1.764 1.764 0 01-.688.128c-.15 0-.283-.011-.4-.032a1.401 1.401 0 01-.64-.256 2.248 2.248 0 01-.296-.24l.376-.368a1.389 1.389 0 00.408.288.92.92 0 00.24.08c.085.016.184.024.296.024.192 0 .354-.032.488-.096a.935.935 0 00.528-.64c.042-.144.064-.301.064-.472v-.616c-.16.203-.331.339-.512.408a1.651 1.651 0 01-.592.104c-.203 0-.387-.032-.552-.096a1.168 1.168 0 01-.4-.256 1.45 1.45 0 01-.392-.728 4.56 4.56 0 01-.088-.912c0-.32.029-.624.088-.912a1.45 1.45 0 01.392-.728c.106-.107.242-.189.408-.248.165-.064.349-.096.552-.096zm.12.512a.954.954 0 00-.52.128.853.853 0 00-.296.336c-.07.133-.115.291-.136.472a4.462 4.462 0 000 1.08c.021.176.066.333.136.472.069.133.168.243.296.328a.954.954 0 00.52.128c.213 0 .384-.043.512-.128a.873.873 0 00.296-.328c.069-.139.114-.296.136-.472a4.521 4.521 0 000-1.08 1.361 1.361 0 00-.136-.472.853.853 0 00-.296-.336c-.128-.085-.299-.128-.512-.128zm4.391-.512c.518 0 .915.171 1.192.512.283.336.424.803.424 1.4v.256h-2.656c0 .432.096.768.288 1.008.198.235.488.352.872.352.23 0 .42-.035.568-.104.155-.075.31-.189.464-.344l.392.344a2.744 2.744 0 01-.304.264 1.56 1.56 0 01-.688.304c-.133.027-.282.04-.448.04-.26 0-.498-.04-.712-.12a1.374 1.374 0 01-.544-.368 1.672 1.672 0 01-.344-.624 3.041 3.041 0 01-.12-.904c0-.645.144-1.141.432-1.488.288-.352.683-.528 1.184-.528zm0 .488c-.213 0-.4.053-.56.16a1.067 1.067 0 00-.36.432 1.158 1.158 0 00-.064.152l-.032.136a8.64 8.64 0 00-.016.16c0 .059-.002.128-.008.208h2.088a8.434 8.434 0 00-.016-.208 1.25 1.25 0 00-.024-.16.565.565 0 00-.032-.136 1.043 1.043 0 00-.424-.584.945.945 0 00-.552-.16zm3.403 2.424c0 .192.037.336.112.432.074.096.213.144.416.144h.312v.496h-.416c-.347 0-.6-.099-.76-.296a1.176 1.176 0 01-.24-.752v-4.648h.576v4.624zm2.39 1.072h-.575v-3.936h.576v3.936zm.04-5.056h-.647v-.648h.648v.648zm1.984 5.76c0 .149-.021.288-.064.416a.863.863 0 01-.496.56c-.123.053-.27.08-.44.08h-.416v-.504h.312c.203 0 .341-.048.416-.144.075-.096.112-.24.112-.432v-4.616h.576v4.64zm.04-5.76h-.648v-.648h.648v.648zm1.983 3.168l1.777-2.048h.72l-1.336 1.504 1.568 2.432h-.713l-1.248-2.016-.767.88v1.136h-.577v-5.696h.577v3.808zm4.29 1.888h-.576v-3.936h.576v3.936zm.04-5.056h-.648v-.648h.648v.648zm3.087 1.072c.432 0 .77.123 1.016.368.272.267.408.635.408 1.104v2.512h-.576v-2.424c0-.352-.088-.613-.264-.784-.17-.176-.405-.264-.704-.264-.299 0-.539.088-.72.264-.176.176-.264.437-.264.784v2.424h-.576v-3.936h.568v.44c.139-.16.301-.28.488-.36.192-.085.4-.128.624-.128zm4.06 0c.218 0 .416.035.592.104.181.064.352.2.512.408v-.464h.568v4.056c0 .245-.038.469-.112.672a1.54 1.54 0 01-.32.536 1.447 1.447 0 01-.52.352 1.764 1.764 0 01-.688.128c-.15 0-.283-.011-.4-.032a1.401 1.401 0 01-.64-.256 2.248 2.248 0 01-.296-.24l.376-.368a1.389 1.389 0 00.408.288.92.92 0 00.24.08c.085.016.184.024.296.024.192 0 .355-.032.488-.096a.935.935 0 00.528-.64c.043-.144.064-.301.064-.472v-.616c-.16.203-.33.339-.512.408a1.651 1.651 0 01-.592.104c-.203 0-.387-.032-.552-.096a1.168 1.168 0 01-.4-.256 1.45 1.45 0 01-.392-.728 4.56 4.56 0 01-.088-.912c0-.32.03-.624.088-.912a1.45 1.45 0 01.392-.728c.106-.107.242-.189.408-.248.165-.064.35-.096.552-.096zm.12.512a.954.954 0 00-.52.128.853.853 0 00-.296.336c-.07.133-.115.291-.136.472a4.462 4.462 0 000 1.08c.021.176.066.333.136.472.07.133.168.243.296.328a.954.954 0 00.52.128c.213 0 .384-.043.512-.128a.873.873 0 00.296-.328c.07-.139.114-.296.136-.472a4.521 4.521 0 000-1.08 1.361 1.361 0 00-.136-.472.853.853 0 00-.296-.336c-.128-.085-.299-.128-.512-.128zm9.176-.512c.213 0 .405.032.576.096.17.064.317.155.44.272.282.272.424.637.424 1.096v2.52h-.576v-2.424c0-.352-.088-.613-.264-.784-.17-.176-.406-.264-.704-.264-.288 0-.526.085-.712.256-.182.171-.272.413-.272.728v2.488h-.576v-2.424c0-.352-.088-.613-.264-.784-.17-.176-.406-.264-.704-.264-.299 0-.539.088-.72.264-.176.176-.264.437-.264.784v2.424h-.576v-3.936h.576v.432c.138-.16.301-.28.488-.36.192-.08.4-.12.624-.12.272 0 .51.056.712.168.208.107.373.269.496.488.31-.437.741-.656 1.296-.656zm4.239 0c.517 0 .915.171 1.192.512.283.336.424.803.424 1.4v.256h-2.656c0 .432.096.768.288 1.008.197.235.488.352.872.352.23 0 .419-.035.568-.104.155-.075.31-.189.464-.344l.392.344a2.754 2.754 0 01-.304.264 1.562 1.562 0 01-.688.304c-.133.027-.283.04-.448.04-.261 0-.499-.04-.712-.12a1.373 1.373 0 01-.544-.368 1.672 1.672 0 01-.344-.624 3.041 3.041 0 01-.12-.904c0-.645.144-1.141.432-1.488.288-.352.683-.528 1.184-.528zm0 .488c-.213 0-.4.053-.56.16a1.065 1.065 0 00-.36.432 1.144 1.144 0 00-.064.152l-.032.136-.016.16a3.2 3.2 0 01-.008.208h2.088a8.956 8.956 0 00-.016-.208 1.25 1.25 0 00-.024-.16.565.565 0 00-.032-.136 1.043 1.043 0 00-.424-.584.946.946 0 00-.552-.16zm3.514-.44h.84v.44h-.84v2.424c0 .187.043.331.128.432.085.096.222.144.408.144h.304v.496h-.408c-.17 0-.32-.027-.448-.08a.978.978 0 01-.312-.232 1.026 1.026 0 01-.184-.336 1.28 1.28 0 01-.064-.408v-2.44h-.496v-.44h.496v-1.208h.576v1.208zm4.537 2.864c0 .192.037.336.112.432.074.096.213.144.416.144h.312v.496h-.416c-.347 0-.6-.099-.76-.296a1.176 1.176 0 01-.24-.752v-4.648h.576v4.624zm3.047-2.912c.533 0 .928.112 1.184.336.261.224.392.549.392.976v2.672h-.576v-.376a1.377 1.377 0 01-.488.328c-.171.064-.387.096-.648.096-.272 0-.491-.027-.656-.08a1.177 1.177 0 01-.456-.28.865.865 0 01-.224-.352 1.406 1.406 0 01-.072-.448c0-.352.117-.629.352-.832.234-.203.573-.304 1.016-.304h1.176v-.376c0-.288-.078-.504-.232-.648-.15-.144-.408-.216-.776-.216-.251 0-.448.035-.592.104a1.11 1.11 0 00-.4.352l-.392-.36c.17-.229.362-.384.576-.464.218-.085.49-.128.816-.128zm-.096 2.168c-.592 0-.888.232-.888.696 0 .229.072.4.216.512.144.107.376.16.696.16.165 0 .32-.013.464-.04a.892.892 0 00.408-.224c.133-.128.2-.355.2-.68v-.424h-1.096zm4.755-2.168c.432 0 .77.123 1.016.368.272.267.408.635.408 1.104v2.512H89.1v-2.424c0-.352-.088-.613-.264-.784-.171-.176-.406-.264-.704-.264-.3 0-.54.088-.72.264-.176.176-.264.437-.264.784v2.424h-.576v-3.936h.568v.44c.138-.16.3-.28.488-.36.192-.085.4-.128.624-.128zm5.747 3.984h-.576v-.464c-.165.203-.336.339-.512.408a1.634 1.634 0 01-.6.104c-.202 0-.386-.029-.552-.088a1.153 1.153 0 01-.648-.592 2.07 2.07 0 01-.152-.408 3.915 3.915 0 01-.072-.448c-.01-.16-.016-.32-.016-.48 0-.32.03-.627.088-.92.064-.299.195-.549.392-.752.107-.107.243-.189.408-.248.166-.064.35-.096.552-.096.219 0 .416.035.592.104.182.069.355.205.52.408v-2.224H94v5.696zm-1.568-3.472a.953.953 0 00-.52.128.853.853 0 00-.296.336c-.069.139-.114.299-.136.48a4.772 4.772 0 000 1.12c.022.181.067.341.136.48.07.139.168.251.296.336a.953.953 0 00.52.128c.214 0 .384-.043.512-.128a.834.834 0 00.304-.336c.075-.139.123-.299.144-.48a4.794 4.794 0 000-1.12 1.338 1.338 0 00-.144-.48.834.834 0 00-.304-.336c-.128-.085-.298-.128-.512-.128zm4.408-.512c.517 0 .914.171 1.192.512.282.336.424.803.424 1.4v.256h-2.656c0 .432.096.768.288 1.008.197.235.488.352.872.352.23 0 .418-.035.568-.104.154-.075.31-.189.464-.344l.392.344a2.763 2.763 0 01-.304.264 1.562 1.562 0 01-.688.304c-.134.027-.283.04-.448.04-.262 0-.499-.04-.712-.12a1.372 1.372 0 01-.544-.368 1.67 1.67 0 01-.344-.624 3.041 3.041 0 01-.12-.904c0-.645.144-1.141.432-1.488.288-.352.682-.528 1.184-.528zm0 .488c-.214 0-.4.053-.56.16a1.065 1.065 0 00-.36.432 1.144 1.144 0 00-.064.152c-.01.043-.022.088-.032.136a7.2 7.2 0 00-.016.16 3.2 3.2 0 01-.008.208h2.088a9.547 9.547 0 00-.016-.208 1.286 1.286 0 00-.024-.16.57.57 0 00-.032-.136 1.044 1.044 0 00-.424-.584.946.946 0 00-.552-.16zm3.402 2.424c0 .192.037.336.112.432.075.096.213.144.416.144h.312v.496h-.416c-.347 0-.6-.099-.76-.296a1.176 1.176 0 01-.24-.752v-4.648h.576v4.624zm2.391 1.072h-.576v-3.936h.576v3.936zm.04-5.056h-.648v-.648h.648v.648zm1.983 5.76a1.3 1.3 0 01-.064.416.85.85 0 01-.184.336.793.793 0 01-.312.224c-.122.053-.269.08-.44.08h-.416v-.504h.312c.203 0 .342-.048.416-.144.075-.096.112-.24.112-.432v-4.616h.576v4.64zm.04-5.76h-.648v-.648h.648v.648zm1.984 3.168l1.776-2.048h.72l-1.336 1.504 1.568 2.432h-.712l-1.248-2.016-.768.88v1.136h-.576v-5.696h.576v3.808zm4.793-2.096c.517 0 .914.171 1.192.512.282.336.424.803.424 1.4v.256h-2.656c0 .432.096.768.288 1.008.197.235.488.352.872.352.229 0 .418-.035.568-.104.154-.075.309-.189.464-.344l.392.344a2.848 2.848 0 01-.304.264 1.57 1.57 0 01-.32.192 1.886 1.886 0 01-.368.112c-.134.027-.283.04-.448.04a2.01 2.01 0 01-.712-.12 1.366 1.366 0 01-.544-.368 1.662 1.662 0 01-.344-.624 3.041 3.041 0 01-.12-.904c0-.645.144-1.141.432-1.488.288-.352.682-.528 1.184-.528zm0 .488c-.214 0-.4.053-.56.16a1.06 1.06 0 00-.36.432 1.106 1.106 0 00-.064.152 3.07 3.07 0 00-.032.136 4.114 4.114 0 00-.016.16c0 .059-.003.128-.008.208h2.088l-.016-.208a1.56 1.56 0 00-.024-.16.6.6 0 00-.032-.136 1.048 1.048 0 00-.424-.584.947.947 0 00-.552-.16zm6.082-.488c.288 0 .549.035.784.104.24.069.451.176.632.32l-.376.376a1.34 1.34 0 00-.48-.232 1.96 1.96 0 00-.568-.08c-.288 0-.507.059-.656.176a.556.556 0 00-.224.472c0 .176.056.309.168.4.112.091.291.149.536.176l.616.056c.171.016.328.045.472.088.144.043.267.107.368.192.101.08.179.184.232.312.059.128.088.285.088.472 0 .379-.147.675-.44.888-.293.208-.68.312-1.16.312-.336 0-.637-.043-.904-.128a1.822 1.822 0 01-.712-.44l.384-.384c.155.16.336.277.544.352.208.069.435.104.68.104.331 0 .587-.056.768-.168a.581.581 0 00.28-.528c0-.176-.051-.309-.152-.4-.101-.096-.269-.155-.504-.176l-.648-.056c-.384-.032-.677-.133-.88-.304-.197-.171-.296-.421-.296-.752 0-.181.035-.341.104-.48.075-.144.176-.264.304-.36.128-.101.28-.179.456-.232.176-.053.371-.08.584-.08zm5.785 3.984h-.568v-.44c-.139.16-.304.283-.496.368-.187.08-.392.12-.616.12-.432 0-.771-.123-1.016-.368-.272-.267-.408-.635-.408-1.104v-2.512h.576v2.424c0 .352.085.616.256.792.176.171.413.256.712.256.298 0 .536-.088.712-.264.181-.176.272-.437.272-.784v-2.424h.576v3.936zm3.132-3.984c.202 0 .386.032.552.096.165.059.301.141.408.248.096.096.176.208.24.336.064.128.112.264.144.408.037.144.061.296.072.456a4.59 4.59 0 01-.072 1.4 1.456 1.456 0 01-.384.744 1.16 1.16 0 01-.408.256 1.64 1.64 0 01-.552.088c-.219 0-.419-.035-.6-.104-.176-.069-.347-.205-.512-.408v2.224h-.576v-5.696h.576v.464c.165-.203.336-.339.512-.408.176-.069.376-.104.6-.104zm-.12.512c-.219 0-.392.043-.52.128a.912.912 0 00-.304.336c-.07.139-.115.299-.136.48a4.646 4.646 0 00-.032.56c0 .192.01.379.032.56.021.181.066.341.136.48a.912.912 0 00.304.336c.128.085.301.128.52.128.213 0 .384-.043.512-.128a.84.84 0 00.304-.336c.069-.139.114-.299.136-.48a4.86 4.86 0 000-1.12 1.472 1.472 0 00-.136-.48.84.84 0 00-.304-.336c-.128-.085-.299-.128-.512-.128zm4.191-.512c.517 0 .915.171 1.192.512.283.336.424.803.424 1.4v.256h-2.656c0 .432.096.768.288 1.008.197.235.488.352.872.352.229 0 .419-.035.568-.104.155-.075.309-.189.464-.344l.392.344a2.754 2.754 0 01-.304.264 1.57 1.57 0 01-.32.192 1.886 1.886 0 01-.368.112c-.133.027-.283.04-.448.04-.261 0-.499-.04-.712-.12a1.373 1.373 0 01-.544-.368 1.676 1.676 0 01-.344-.624 3.041 3.041 0 01-.12-.904c0-.645.144-1.141.432-1.488.288-.352.683-.528 1.184-.528zm0 .488c-.213 0-.4.053-.56.16a1.06 1.06 0 00-.36.432 1.106 1.106 0 00-.064.152l-.032.136-.016.16c0 .059-.003.128-.008.208h2.088c-.005-.08-.011-.149-.016-.208a1.152 1.152 0 00-.024-.16.551.551 0 00-.032-.136 1.041 1.041 0 00-.424-.584.947.947 0 00-.552-.16zm4.522-.488c.187 0 .355.027.504.08.155.053.301.149.44.288l-.424.432a1.056 1.056 0 00-.304-.224.928.928 0 00-.376-.064.94.94 0 00-.392.08.822.822 0 00-.296.224c-.08.096-.144.208-.192.336a1.3 1.3 0 00-.064.416v2.416h-.576v-3.936h.576v.48c.107-.165.259-.293.456-.384.203-.096.419-.144.648-.144zm5.879 0c.214 0 .406.032.576.096.171.064.318.155.44.272.283.272.424.637.424 1.096v2.52h-.576v-2.424c0-.352-.088-.613-.264-.784-.17-.176-.405-.264-.704-.264-.288 0-.525.085-.712.256-.181.171-.272.413-.272.728v2.488h-.576v-2.424c0-.352-.088-.613-.264-.784-.17-.176-.405-.264-.704-.264-.298 0-.538.088-.72.264-.176.176-.264.437-.264.784v2.424h-.576v-3.936h.576v.432c.139-.16.302-.28.488-.36.192-.08.4-.12.624-.12.272 0 .51.056.712.168.208.107.374.269.496.488.31-.437.742-.656 1.296-.656zm4.072 0c.533 0 .928.112 1.184.336.261.224.392.549.392.976v2.672h-.576v-.376a1.386 1.386 0 01-.488.328 1.869 1.869 0 01-.648.096c-.272 0-.491-.027-.656-.08a1.167 1.167 0 01-.456-.28.858.858 0 01-.224-.352 1.406 1.406 0 01-.072-.448c0-.352.117-.629.352-.832.234-.203.573-.304 1.016-.304h1.176v-.376c0-.288-.078-.504-.232-.648-.15-.144-.408-.216-.776-.216-.251 0-.448.035-.592.104a1.104 1.104 0 00-.4.352l-.392-.36c.17-.229.362-.384.576-.464.218-.085.49-.128.816-.128zm-.096 2.168c-.592 0-.888.232-.888.696 0 .229.072.4.216.512.144.107.376.16.696.16.165 0 .32-.013.464-.04a.892.892 0 00.408-.224c.133-.128.2-.355.2-.68v-.424h-1.096zm4.754-2.168c.187 0 .355.027.504.08.155.053.302.149.44.288l-.424.432a1.043 1.043 0 00-.304-.224.928.928 0 00-.376-.064.944.944 0 00-.392.08.822.822 0 00-.296.224c-.08.096-.144.208-.192.336a1.328 1.328 0 00-.064.416v2.416h-.576v-3.936h.576v.48c.107-.165.259-.293.456-.384.203-.096.419-.144.648-.144zm2.264 2.096l1.776-2.048h.72l-1.336 1.504 1.568 2.432h-.712l-1.248-2.016-.768.88v1.136h-.576v-5.696h.576v3.808zm4.322-2.048h.84v.44h-.84v2.424c0 .187.043.331.128.432.086.096.222.144.408.144h.304v.496h-.408c-.17 0-.32-.027-.448-.08a.994.994 0 01-.312-.232 1.031 1.031 0 01-.184-.336 1.3 1.3 0 01-.064-.408v-2.44h-.496v-.44h.496v-1.208h.576v1.208zm3.345-.048c.518 0 .915.171 1.192.512.283.336.424.803.424 1.4v.256h-2.656c0 .432.096.768.288 1.008.198.235.488.352.872.352.23 0 .419-.035.568-.104a1.72 1.72 0 00.464-.344l.392.344a2.665 2.665 0 01-.304.264 1.543 1.543 0 01-.688.304 2.26 2.26 0 01-.448.04c-.261 0-.498-.04-.712-.12a1.38 1.38 0 01-.544-.368 1.676 1.676 0 01-.344-.624 3.041 3.041 0 01-.12-.904c0-.645.144-1.141.432-1.488.288-.352.683-.528 1.184-.528zm0 .488c-.213 0-.4.053-.56.16a1.077 1.077 0 00-.36.432 1.246 1.246 0 00-.064.152l-.032.136-.016.16c0 .059-.002.128-.008.208h2.088a5.532 5.532 0 00-.016-.208 1.152 1.152 0 00-.024-.16.551.551 0 00-.032-.136 1.041 1.041 0 00-.424-.584.943.943 0 00-.552-.16zm4.523-.488c.432 0 .77.123 1.016.368.272.267.408.635.408 1.104v2.512h-.576v-2.424c0-.352-.088-.613-.264-.784-.171-.176-.406-.264-.704-.264-.299 0-.539.088-.72.264-.176.176-.264.437-.264.784v2.424h-.576v-3.936h.568v.44c.138-.16.301-.28.488-.36.192-.085.4-.128.624-.128zm3.515 4.504l-.704.632v-1.856h.704v1.224zM1.296 120.88l1.776-2.048h.72l-1.336 1.504 1.568 2.432h-.712l-1.248-2.016-.768.88v1.136H.72v-5.696h.576v3.808zm4.29 1.888h-.577v-3.936h.576v3.936zm.04-5.056h-.649v-.648h.648v.648zm1.982 5.76c0 .149-.02.288-.063.416a.862.862 0 01-.497.56c-.122.053-.269.08-.44.08h-.415v-.504h.312c.202 0 .34-.048.415-.144.075-.096.112-.24.112-.432v-4.616h.577v4.64zm.04-5.76h-.647v-.648h.647v.648zm1.984 3.168l1.776-2.048h.72l-1.336 1.504 1.568 2.432h-.712l-1.248-2.016-.768.88v1.136h-.576v-5.696h.576v3.808zm5.073-2.048h.624l1.08 3.16 1.072-3.16h.624l-1.448 3.936h-.512l-1.44-3.936zm5.532-.048c.24 0 .454.04.64.12.187.08.35.189.488.328.203.203.334.44.392.712.059.267.088.552.088.856 0 .304-.032.592-.096.864a1.436 1.436 0 01-.384.704 1.536 1.536 0 01-.488.328c-.186.08-.4.12-.64.12s-.453-.04-.64-.12a1.536 1.536 0 01-.736-.656 2.486 2.486 0 01-.144-.376 3.37 3.37 0 01-.072-.416 6.043 6.043 0 01-.016-.448c0-.304.03-.589.088-.856.059-.272.19-.509.392-.712.139-.139.301-.248.488-.328.187-.08.4-.12.64-.12zm0 .512a.967.967 0 00-.984.84c-.032.219-.048.44-.048.664 0 .112.003.224.008.336.005.112.019.221.04.328.021.107.053.208.096.304a.967.967 0 00.888.536.977.977 0 00.72-.288.975.975 0 00.264-.552 4.583 4.583 0 000-1.328.945.945 0 00-.264-.552.977.977 0 00-.72-.288zm4.242-.512c.24 0 .454.04.64.12.187.08.35.189.488.328.203.203.334.44.392.712.059.267.088.552.088.856 0 .304-.032.592-.096.864a1.436 1.436 0 01-.384.704 1.537 1.537 0 01-.488.328c-.186.08-.4.12-.64.12s-.453-.04-.64-.12a1.534 1.534 0 01-.736-.656 2.486 2.486 0 01-.144-.376 3.37 3.37 0 01-.072-.416 6.043 6.043 0 01-.016-.448c0-.304.03-.589.088-.856a1.41 1.41 0 01.392-.712 1.534 1.534 0 011.128-.448zm0 .512a.967.967 0 00-.984.84c-.032.219-.048.44-.048.664 0 .112.003.224.008.336.006.112.019.221.04.328.022.107.054.208.096.304a.967.967 0 00.888.536.977.977 0 00.72-.288.975.975 0 00.264-.552 4.583 4.583 0 000-1.328.945.945 0 00-.264-.552.977.977 0 00-.72-.288zm4.523-.512a1.5 1.5 0 01.504.08c.154.053.3.149.44.288l-.424.432a1.052 1.052 0 00-.304-.224.93.93 0 00-.376-.064.942.942 0 00-.392.08.818.818 0 00-.296.224c-.08.096-.144.208-.192.336a1.308 1.308 0 00-.064.416v2.416h-.576v-3.936h.576v.48a1.05 1.05 0 01.456-.384c.202-.096.418-.144.648-.144zm6.599 3.984h-.576v-.464c-.165.203-.336.339-.512.408a1.634 1.634 0 01-.6.104c-.203 0-.387-.029-.552-.088a1.155 1.155 0 01-.648-.592 2.076 2.076 0 01-.152-.408 3.915 3.915 0 01-.072-.448 7.26 7.26 0 01-.016-.48c0-.32.03-.627.088-.92.064-.299.195-.549.392-.752.107-.107.243-.189.408-.248.165-.064.35-.096.552-.096.219 0 .416.035.592.104.181.069.355.205.52.408v-2.224h.576v5.696zm-1.568-3.472a.954.954 0 00-.52.128.854.854 0 00-.296.336 1.45 1.45 0 00-.136.48 4.794 4.794 0 000 1.12c.021.181.067.341.136.48.07.139.168.251.296.336a.954.954 0 00.52.128c.213 0 .384-.043.512-.128a.833.833 0 00.304-.336c.075-.139.123-.299.144-.48a4.772 4.772 0 000-1.12 1.334 1.334 0 00-.144-.48.833.833 0 00-.304-.336c-.128-.085-.299-.128-.512-.128zm4.407-.512c.518 0 .915.171 1.192.512.283.336.424.803.424 1.4v.256H37.4c0 .432.096.768.288 1.008.198.235.488.352.872.352.23 0 .419-.035.568-.104.155-.075.31-.189.464-.344l.392.344a2.754 2.754 0 01-.304.264 1.562 1.562 0 01-.688.304c-.133.027-.282.04-.448.04-.261 0-.498-.04-.712-.12a1.373 1.373 0 01-.544-.368 1.672 1.672 0 01-.344-.624 3.041 3.041 0 01-.12-.904c0-.645.144-1.141.432-1.488.288-.352.683-.528 1.184-.528zm0 .488c-.213 0-.4.053-.56.16a1.065 1.065 0 00-.36.432 1.144 1.144 0 00-.064.152l-.032.136-.016.16a3.2 3.2 0 01-.008.208h2.088a8.956 8.956 0 00-.016-.208 1.25 1.25 0 00-.024-.16.565.565 0 00-.032-.136 1.043 1.043 0 00-.424-.584.946.946 0 00-.552-.16zm4.203-.44h.624l1.08 3.16 1.072-3.16h.624l-1.448 3.936h-.512l-1.44-3.936zm5.532-.048c.24 0 .453.04.64.12.186.08.349.189.488.328.202.203.333.44.392.712.058.267.088.552.088.856 0 .304-.032.592-.096.864a1.436 1.436 0 01-.384.704 1.536 1.536 0 01-.488.328c-.187.08-.4.12-.64.12s-.454-.04-.64-.12a1.536 1.536 0 01-.736-.656 2.486 2.486 0 01-.144-.376 3.37 3.37 0 01-.072-.416 6.043 6.043 0 01-.016-.448c0-.304.029-.589.088-.856.058-.272.189-.509.392-.712.138-.139.301-.248.488-.328.186-.08.4-.12.64-.12zm0 .512a.967.967 0 00-.984.84c-.032.219-.048.44-.048.664 0 .112.002.224.008.336.005.112.018.221.04.328.021.107.053.208.096.304a.967.967 0 00.888.536.977.977 0 00.72-.288.975.975 0 00.264-.552 4.583 4.583 0 000-1.328.945.945 0 00-.264-.552.977.977 0 00-.72-.288zm4.242-.512c.24 0 .453.04.64.12.186.08.35.189.488.328.203.203.333.44.392.712.059.267.088.552.088.856 0 .304-.032.592-.096.864a1.436 1.436 0 01-.384.704 1.537 1.537 0 01-.488.328c-.187.08-.4.12-.64.12s-.453-.04-.64-.12a1.534 1.534 0 01-.736-.656 2.486 2.486 0 01-.144-.376 3.37 3.37 0 01-.072-.416 6.043 6.043 0 01-.016-.448c0-.304.03-.589.088-.856a1.41 1.41 0 01.392-.712 1.534 1.534 0 011.128-.448zm0 .512a.967.967 0 00-.984.84c-.032.219-.048.44-.048.664 0 .112.003.224.008.336.005.112.018.221.04.328.021.107.053.208.096.304a.967.967 0 00.888.536.977.977 0 00.72-.288.975.975 0 00.264-.552 4.583 4.583 0 000-1.328.945.945 0 00-.264-.552.977.977 0 00-.72-.288zm4.522-.512a1.5 1.5 0 01.504.08c.155.053.301.149.44.288l-.424.432a1.052 1.052 0 00-.304-.224.93.93 0 00-.376-.064.942.942 0 00-.392.08.818.818 0 00-.296.224c-.08.096-.144.208-.192.336a1.308 1.308 0 00-.064.416v2.416h-.576v-3.936h.576v.48a1.05 1.05 0 01.456-.384c.203-.096.419-.144.648-.144zm1.133.048h.624l.912 3.16 1.024-3.16h.504l1.016 3.16.912-3.16h.624l-1.248 3.936h-.536l-1.024-3.208-1.024 3.208h-.528l-1.256-3.936zm7.614-.048c.534 0 .928.112 1.184.336.262.224.392.549.392.976v2.672h-.576v-.376a1.378 1.378 0 01-.488.328c-.17.064-.386.096-.648.096-.272 0-.49-.027-.656-.08a1.176 1.176 0 01-.456-.28.864.864 0 01-.224-.352 1.406 1.406 0 01-.072-.448c0-.352.118-.629.352-.832.235-.203.574-.304 1.016-.304h1.176v-.376c0-.288-.077-.504-.232-.648-.149-.144-.408-.216-.776-.216-.25 0-.448.035-.592.104a1.11 1.11 0 00-.4.352l-.392-.36c.171-.229.363-.384.576-.464.219-.085.491-.128.816-.128zm-.096 2.168c-.592 0-.888.232-.888.696 0 .229.072.4.216.512.144.107.376.16.696.16.166 0 .32-.013.464-.04a.892.892 0 00.408-.224c.134-.128.2-.355.2-.68v-.424H65.59zm4.307-2.168c.534 0 .928.112 1.184.336.262.224.392.549.392.976v2.672h-.576v-.376a1.377 1.377 0 01-.488.328c-.17.064-.386.096-.648.096-.272 0-.49-.027-.656-.08a1.177 1.177 0 01-.456-.28.865.865 0 01-.224-.352 1.406 1.406 0 01-.072-.448c0-.352.118-.629.352-.832.235-.203.574-.304 1.016-.304h1.176v-.376c0-.288-.077-.504-.232-.648-.149-.144-.408-.216-.776-.216-.25 0-.448.035-.592.104a1.11 1.11 0 00-.4.352l-.392-.36c.171-.229.363-.384.576-.464.219-.085.491-.128.816-.128zm-.096 2.168c-.592 0-.888.232-.888.696 0 .229.072.4.216.512.144.107.376.16.696.16.166 0 .32-.013.464-.04a.892.892 0 00.408-.224c.134-.128.2-.355.2-.68v-.424h-1.096zm4.755-2.168a1.5 1.5 0 01.504.08c.155.053.302.149.44.288l-.424.432a1.052 1.052 0 00-.304-.224.93.93 0 00-.376-.064.942.942 0 00-.392.08.818.818 0 00-.296.224c-.08.096-.144.208-.192.336a1.308 1.308 0 00-.064.416v2.416h-.576v-3.936h.576v.48a1.05 1.05 0 01.456-.384c.203-.096.419-.144.648-.144zm4.365 3.984h-.576v-.464c-.165.203-.336.339-.512.408a1.634 1.634 0 01-.6.104c-.202 0-.386-.029-.552-.088a1.153 1.153 0 01-.648-.592 2.07 2.07 0 01-.152-.408 3.937 3.937 0 01-.072-.448 7.26 7.26 0 01-.016-.48c0-.32.03-.627.088-.92.064-.299.195-.549.392-.752.107-.107.243-.189.408-.248.166-.064.35-.096.552-.096.219 0 .416.035.592.104.182.069.355.205.52.408v-2.224h.576v5.696zm-1.568-3.472a.953.953 0 00-.52.128.853.853 0 00-.296.336c-.07.139-.114.299-.136.48a4.772 4.772 0 000 1.12c.022.181.067.341.136.48.07.139.168.251.296.336a.953.953 0 00.52.128c.214 0 .384-.043.512-.128a.834.834 0 00.304-.336c.075-.139.123-.299.144-.48a4.794 4.794 0 000-1.12 1.338 1.338 0 00-.144-.48.834.834 0 00-.304-.336c-.128-.085-.298-.128-.512-.128zm4.408-.512c.517 0 .914.171 1.192.512.282.336.424.803.424 1.4v.256H80.72c0 .432.096.768.288 1.008.197.235.488.352.872.352.229 0 .418-.035.568-.104.154-.075.309-.189.464-.344l.392.344a2.744 2.744 0 01-.304.264 1.56 1.56 0 01-.688.304c-.134.027-.283.04-.448.04-.262 0-.499-.04-.712-.12a1.374 1.374 0 01-.544-.368 1.672 1.672 0 01-.344-.624 3.041 3.041 0 01-.12-.904c0-.645.144-1.141.432-1.488.288-.352.682-.528 1.184-.528zm0 .488c-.214 0-.4.053-.56.16a1.067 1.067 0 00-.36.432 1.158 1.158 0 00-.064.152c-.011.043-.022.088-.032.136a8.64 8.64 0 00-.016.16c0 .059-.003.128-.008.208h2.088a8.434 8.434 0 00-.016-.208 1.25 1.25 0 00-.024-.16.565.565 0 00-.032-.136 1.043 1.043 0 00-.424-.584.945.945 0 00-.552-.16zm4.522-.488c.432 0 .77.123 1.016.368.272.267.408.635.408 1.104v2.512h-.576v-2.424c0-.352-.088-.613-.264-.784-.17-.176-.406-.264-.704-.264-.299 0-.539.088-.72.264-.176.176-.264.437-.264.784v2.424h-.576v-3.936h.568v.44c.138-.16.301-.28.488-.36.192-.085.4-.128.624-.128zm6.22 0c.24 0 .453.04.64.12.186.08.35.189.488.328.203.203.333.44.392.712.059.267.088.552.088.856 0 .304-.032.592-.096.864a1.436 1.436 0 01-.384.704 1.536 1.536 0 01-.488.328c-.187.08-.4.12-.64.12s-.454-.04-.64-.12a1.536 1.536 0 01-.736-.656 2.486 2.486 0 01-.144-.376 3.37 3.37 0 01-.072-.416 6.043 6.043 0 01-.016-.448c0-.304.03-.589.088-.856.058-.272.19-.509.392-.712.138-.139.301-.248.488-.328.186-.08.4-.12.64-.12zm0 .512a.967.967 0 00-.984.84c-.032.219-.048.44-.048.664 0 .112.002.224.008.336.005.112.019.221.04.328.021.107.053.208.096.304a.967.967 0 00.888.536.977.977 0 00.72-.288.975.975 0 00.264-.552 4.583 4.583 0 000-1.328.945.945 0 00-.264-.552.977.977 0 00-.72-.288zm4.53-.512c.203 0 .387.032.552.096.165.059.301.141.408.248.096.096.176.208.24.336.064.128.112.264.144.408.037.144.061.296.072.456a4.59 4.59 0 01-.072 1.4 1.452 1.452 0 01-.384.744 1.155 1.155 0 01-.408.256c-.165.059-.35.088-.552.088-.219 0-.419-.035-.6-.104-.176-.069-.347-.205-.512-.408v2.224h-.576v-5.696h.576v.464c.165-.203.336-.339.512-.408.176-.069.376-.104.6-.104zm-.12.512c-.219 0-.392.043-.52.128a.918.918 0 00-.304.336c-.07.139-.115.299-.136.48a4.794 4.794 0 000 1.12c.021.181.067.341.136.48a.918.918 0 00.304.336c.128.085.301.128.52.128.213 0 .384-.043.512-.128a.833.833 0 00.304-.336c.07-.139.115-.299.136-.48a4.794 4.794 0 000-1.12 1.448 1.448 0 00-.136-.48.833.833 0 00-.304-.336c-.128-.085-.299-.128-.512-.128zm6.016-.512c.533 0 .928.112 1.184.336.261.224.392.549.392.976v2.672h-.576v-.376a1.386 1.386 0 01-.488.328 1.869 1.869 0 01-.648.096c-.272 0-.491-.027-.656-.08a1.167 1.167 0 01-.456-.28.858.858 0 01-.224-.352 1.406 1.406 0 01-.072-.448c0-.352.117-.629.352-.832.234-.203.573-.304 1.016-.304h1.176v-.376c0-.288-.078-.504-.232-.648-.15-.144-.408-.216-.776-.216-.251 0-.448.035-.592.104a1.104 1.104 0 00-.4.352l-.392-.36c.17-.229.362-.384.576-.464.218-.085.49-.128.816-.128zm-.096 2.168c-.592 0-.888.232-.888.696 0 .229.072.4.216.512.144.107.376.16.696.16.165 0 .32-.013.464-.04a.892.892 0 00.408-.224c.133-.128.2-.355.2-.68v-.424h-1.096zm3.635.744c0 .192.037.336.112.432.074.096.213.144.416.144h.312v.496h-.416c-.347 0-.6-.099-.76-.296a1.176 1.176 0 01-.24-.752v-4.648h.576v4.624zm4.656 1.072h-.576v-.464c-.165.203-.336.339-.512.408a1.634 1.634 0 01-.6.104 1.64 1.64 0 01-.552-.088 1.16 1.16 0 01-.648-.592 2.115 2.115 0 01-.152-.408 3.915 3.915 0 01-.072-.448c-.01-.16-.016-.32-.016-.48 0-.32.03-.627.088-.92.064-.299.195-.549.392-.752a1.08 1.08 0 01.408-.248c.166-.064.35-.096.552-.096.219 0 .416.035.592.104.182.069.355.205.52.408v-2.224h.576v5.696zm-1.568-3.472a.956.956 0 00-.52.128.859.859 0 00-.296.336 1.472 1.472 0 00-.136.48 4.86 4.86 0 000 1.12c.022.181.067.341.136.48.07.139.168.251.296.336a.956.956 0 00.52.128c.214 0 .384-.043.512-.128a.826.826 0 00.304-.336c.075-.139.123-.299.144-.48.022-.181.032-.368.032-.56 0-.192-.01-.379-.032-.56a1.322 1.322 0 00-.144-.48.826.826 0 00-.304-.336c-.128-.085-.298-.128-.512-.128zm3.584 3.472h-.576v-3.936h.576v3.936zm.04-5.056h-.648v-.648h.648v.648zm2.143 5.056h-.752v-.752h.752v.752zm3.1-3.984c.432 0 .771.123 1.016.368.272.267.408.635.408 1.104v2.512h-.576v-2.424c0-.352-.088-.613-.264-.784-.17-.176-.405-.264-.704-.264-.298 0-.538.088-.72.264-.176.176-.264.437-.264.784v2.424h-.576v-3.936h.568v.44c.139-.16.302-.28.488-.36.192-.085.4-.128.624-.128zm3.388 2.912c0 .192.038.336.112.432.075.096.214.144.416.144h.312v.496h-.416c-.346 0-.6-.099-.76-.296a1.176 1.176 0 01-.24-.752v-4.648h.576v4.624zm1.663 1.664h-.568l2.28-6.88h.568l-2.28 6.88zm4.684-4.576c.432 0 .77.123 1.016.368.272.267.408.635.408 1.104v2.512h-.576v-2.424c0-.352-.088-.613-.264-.784-.171-.176-.406-.264-.704-.264-.299 0-.539.088-.72.264-.176.176-.264.437-.264.784v2.424h-.576v-3.936h.568v.44c.138-.16.301-.28.488-.36.192-.085.4-.128.624-.128zm4.228 0c.517 0 .914.171 1.192.512.282.336.424.803.424 1.4v.256h-2.656c0 .432.096.768.288 1.008.197.235.488.352.872.352.229 0 .418-.035.568-.104.154-.075.309-.189.464-.344l.392.344a2.848 2.848 0 01-.304.264 1.57 1.57 0 01-.32.192 1.886 1.886 0 01-.368.112c-.134.027-.283.04-.448.04a2.01 2.01 0 01-.712-.12 1.366 1.366 0 01-.544-.368 1.662 1.662 0 01-.344-.624 3.041 3.041 0 01-.12-.904c0-.645.144-1.141.432-1.488.288-.352.682-.528 1.184-.528zm0 .488c-.214 0-.4.053-.56.16a1.06 1.06 0 00-.36.432 1.106 1.106 0 00-.064.152 3.07 3.07 0 00-.032.136 4.114 4.114 0 00-.016.16c0 .059-.003.128-.008.208h2.088l-.016-.208a1.56 1.56 0 00-.024-.16.6.6 0 00-.032-.136 1.048 1.048 0 00-.424-.584.947.947 0 00-.552-.16zm4.522-.488c.186 0 .354.027.504.08.154.053.301.149.44.288l-.424.432a1.056 1.056 0 00-.304-.224.931.931 0 00-.376-.064.94.94 0 00-.392.08.813.813 0 00-.296.224c-.08.096-.144.208-.192.336a1.3 1.3 0 00-.064.416v2.416h-.576v-3.936h.576v.48c.106-.165.258-.293.456-.384a1.49 1.49 0 01.648-.144zm2.677 0c.218 0 .416.035.592.104.181.064.352.2.512.408v-.464h.568v4.056c0 .245-.038.469-.112.672a1.555 1.555 0 01-.32.536 1.45 1.45 0 01-.52.352 1.765 1.765 0 01-.688.128c-.15 0-.283-.011-.4-.032a1.384 1.384 0 01-.64-.256 2.229 2.229 0 01-.296-.24l.376-.368c.069.064.136.12.2.168.069.048.138.088.208.12a.904.904 0 00.24.08c.085.016.184.024.296.024.192 0 .354-.032.488-.096a.953.953 0 00.528-.64c.042-.144.064-.301.064-.472v-.616c-.16.203-.331.339-.512.408a1.655 1.655 0 01-.592.104c-.203 0-.387-.032-.552-.096a1.162 1.162 0 01-.4-.256 1.444 1.444 0 01-.392-.728 4.537 4.537 0 01-.088-.912c0-.32.029-.624.088-.912.064-.288.194-.531.392-.728.106-.107.242-.189.408-.248.165-.064.349-.096.552-.096zm.12.512a.951.951 0 00-.52.128.85.85 0 00-.296.336 1.34 1.34 0 00-.136.472 4.322 4.322 0 00-.032.536c0 .187.01.368.032.544.021.176.066.333.136.472a.87.87 0 00.296.328.951.951 0 00.52.128c.213 0 .384-.043.512-.128a.88.88 0 00.296-.328 1.46 1.46 0 00.136-.472 4.584 4.584 0 000-1.08 1.383 1.383 0 00-.136-.472.859.859 0 00-.296-.336c-.128-.085-.299-.128-.512-.128zm4.392-.512c.517 0 .914.171 1.192.512.282.336.424.803.424 1.4v.256h-2.656c0 .432.096.768.288 1.008.197.235.488.352.872.352.229 0 .418-.035.568-.104.154-.075.309-.189.464-.344l.392.344a2.848 2.848 0 01-.304.264 1.57 1.57 0 01-.32.192 1.886 1.886 0 01-.368.112c-.134.027-.283.04-.448.04a2.01 2.01 0 01-.712-.12 1.366 1.366 0 01-.544-.368 1.662 1.662 0 01-.344-.624 3.041 3.041 0 01-.12-.904c0-.645.144-1.141.432-1.488.288-.352.682-.528 1.184-.528zm0 .488c-.214 0-.4.053-.56.16a1.06 1.06 0 00-.36.432 1.106 1.106 0 00-.064.152 3.07 3.07 0 00-.032.136 4.114 4.114 0 00-.016.16c0 .059-.003.128-.008.208h2.088l-.016-.208a1.56 1.56 0 00-.024-.16.6.6 0 00-.032-.136 1.048 1.048 0 00-.424-.584.947.947 0 00-.552-.16zm4.522-.488c.432 0 .77.123 1.016.368.272.267.408.635.408 1.104v2.512h-.576v-2.424c0-.352-.088-.613-.264-.784-.171-.176-.406-.264-.704-.264-.299 0-.539.088-.72.264-.176.176-.264.437-.264.784v2.424h-.576v-3.936h.568v.44c.138-.16.301-.28.488-.36.192-.085.4-.128.624-.128zm4.076 0c.288 0 .549.035.784.104.24.069.45.176.632.32l-.376.376a1.34 1.34 0 00-.48-.232 1.964 1.964 0 00-.568-.08c-.288 0-.507.059-.656.176a.554.554 0 00-.224.472c0 .176.056.309.168.4.112.091.29.149.536.176l.616.056c.17.016.328.045.472.088.144.043.266.107.368.192.101.08.178.184.232.312.058.128.088.285.088.472 0 .379-.147.675-.44.888-.294.208-.68.312-1.16.312-.336 0-.638-.043-.904-.128a1.815 1.815 0 01-.712-.44l.384-.384c.154.16.336.277.544.352.208.069.434.104.68.104.33 0 .586-.056.768-.168a.583.583 0 00.28-.528c0-.176-.051-.309-.152-.4-.102-.096-.27-.155-.504-.176l-.648-.056c-.384-.032-.678-.133-.88-.304-.198-.171-.296-.421-.296-.752 0-.181.034-.341.104-.48.074-.144.176-.264.304-.36.128-.101.28-.179.456-.232.176-.053.37-.08.584-.08zm3.952 0c.219 0 .416.035.592.104.182.064.352.2.512.408v-.464h.568v4.056c0 .245-.037.469-.112.672a1.441 1.441 0 01-.84.888 1.762 1.762 0 01-.688.128 2.29 2.29 0 01-.4-.032 1.409 1.409 0 01-.336-.088 1.808 1.808 0 01-.304-.168 2.295 2.295 0 01-.296-.24l.376-.368c.07.064.136.12.2.168.07.048.139.088.208.12a.928.928 0 00.24.08c.086.016.184.024.296.024.192 0 .355-.032.488-.096a.9.9 0 00.336-.256.928.928 0 00.192-.384c.043-.144.064-.301.064-.472v-.616c-.16.203-.33.339-.512.408a1.647 1.647 0 01-.592.104c-.202 0-.386-.032-.552-.096a1.171 1.171 0 01-.4-.256 1.452 1.452 0 01-.392-.728 4.611 4.611 0 01-.088-.912c0-.32.03-.624.088-.912.064-.288.195-.531.392-.728a1.08 1.08 0 01.408-.248c.166-.064.35-.096.552-.096zm.12.512a.956.956 0 00-.52.128.859.859 0 00-.296.336 1.383 1.383 0 00-.136.472 4.524 4.524 0 000 1.08c.022.176.067.333.136.472a.88.88 0 00.296.328.956.956 0 00.52.128c.214 0 .384-.043.512-.128a.87.87 0 00.296-.328c.07-.139.115-.296.136-.472.022-.176.032-.357.032-.544 0-.181-.01-.36-.032-.536a1.34 1.34 0 00-.136-.472.85.85 0 00-.296-.336c-.128-.085-.298-.128-.512-.128zm4.392-.512c.24 0 .453.04.64.12.187.08.349.189.488.328.203.203.333.44.392.712.059.267.088.552.088.856 0 .304-.032.592-.096.864a1.44 1.44 0 01-.384.704 1.536 1.536 0 01-.488.328c-.187.08-.4.12-.64.12s-.453-.04-.64-.12a1.536 1.536 0 01-.736-.656 2.424 2.424 0 01-.144-.376 3.37 3.37 0 01-.072-.416 5.884 5.884 0 01-.016-.448c0-.304.029-.589.088-.856.059-.272.189-.509.392-.712.139-.139.301-.248.488-.328.187-.08.4-.12.64-.12zm0 .512a.967.967 0 00-.984.84c-.032.219-.048.44-.048.664 0 .112.003.224.008.336.005.112.019.221.04.328a1.4 1.4 0 00.096.304.967.967 0 00.888.536.977.977 0 00.72-.288.975.975 0 00.264-.552 4.583 4.583 0 000-1.328.945.945 0 00-.264-.552.977.977 0 00-.72-.288zm4.242-.512c.518 0 .915.171 1.192.512.283.336.424.803.424 1.4v.256h-2.656c0 .432.096.768.288 1.008.198.235.488.352.872.352.23 0 .419-.035.568-.104a1.72 1.72 0 00.464-.344l.392.344a2.665 2.665 0 01-.304.264 1.543 1.543 0 01-.688.304 2.26 2.26 0 01-.448.04c-.261 0-.498-.04-.712-.12a1.38 1.38 0 01-.544-.368 1.676 1.676 0 01-.344-.624 3.041 3.041 0 01-.12-.904c0-.645.144-1.141.432-1.488.288-.352.683-.528 1.184-.528zm0 .488c-.213 0-.4.053-.56.16a1.077 1.077 0 00-.36.432 1.246 1.246 0 00-.064.152l-.032.136-.016.16c0 .059-.002.128-.008.208h2.088a5.532 5.532 0 00-.016-.208 1.152 1.152 0 00-.024-.16.551.551 0 00-.032-.136 1.041 1.041 0 00-.424-.584.943.943 0 00-.552-.16zm5.762 3.496h-.576v-.464c-.165.203-.336.339-.512.408a1.634 1.634 0 01-.6.104 1.64 1.64 0 01-.552-.088 1.16 1.16 0 01-.648-.592 2.115 2.115 0 01-.152-.408 3.915 3.915 0 01-.072-.448c-.01-.16-.016-.32-.016-.48 0-.32.03-.627.088-.92.064-.299.195-.549.392-.752a1.08 1.08 0 01.408-.248c.166-.064.35-.096.552-.096.219 0 .416.035.592.104.182.069.355.205.52.408v-2.224h.576v5.696zm-1.568-3.472a.956.956 0 00-.52.128.859.859 0 00-.296.336 1.472 1.472 0 00-.136.48 4.86 4.86 0 000 1.12c.022.181.067.341.136.48.07.139.168.251.296.336a.956.956 0 00.52.128c.214 0 .384-.043.512-.128a.826.826 0 00.304-.336c.075-.139.123-.299.144-.48.022-.181.032-.368.032-.56 0-.192-.01-.379-.032-.56a1.322 1.322 0 00-.144-.48.826.826 0 00-.304-.336c-.128-.085-.298-.128-.512-.128zm3.584 1.584l1.776-2.048h.72l-1.336 1.504 1.568 2.432h-.712l-1.248-2.016-.768.88v1.136h-.576v-5.696h.576v3.808zm4.793-2.096c.24 0 .453.04.64.12.186.08.349.189.488.328.202.203.333.44.392.712.058.267.088.552.088.856 0 .304-.032.592-.096.864a1.44 1.44 0 01-.384.704 1.547 1.547 0 01-.488.328c-.187.08-.4.12-.64.12s-.454-.04-.64-.12a1.525 1.525 0 01-.736-.656 2.424 2.424 0 01-.144-.376 3.37 3.37 0 01-.072-.416 5.884 5.884 0 01-.016-.448c0-.304.029-.589.088-.856.058-.272.189-.509.392-.712a1.525 1.525 0 011.128-.448zm0 .512a.967.967 0 00-.984.84c-.032.219-.048.44-.048.664 0 .112.002.224.008.336.005.112.018.221.04.328a1.4 1.4 0 00.096.304.967.967 0 00.888.536.977.977 0 00.72-.288.975.975 0 00.264-.552 4.583 4.583 0 000-1.328.945.945 0 00-.264-.552.977.977 0 00-.72-.288zm4.53-.512c.202 0 .386.032.552.096.165.059.301.141.408.248.096.096.176.208.24.336.064.128.112.264.144.408.037.144.061.296.072.456a4.59 4.59 0 01-.072 1.4 1.456 1.456 0 01-.384.744 1.16 1.16 0 01-.408.256 1.64 1.64 0 01-.552.088c-.219 0-.419-.035-.6-.104-.176-.069-.347-.205-.512-.408v2.224h-.576v-5.696h.576v.464c.165-.203.336-.339.512-.408.176-.069.376-.104.6-.104zm-.12.512c-.219 0-.392.043-.52.128a.912.912 0 00-.304.336c-.07.139-.115.299-.136.48a4.646 4.646 0 00-.032.56c0 .192.01.379.032.56.021.181.066.341.136.48a.912.912 0 00.304.336c.128.085.301.128.52.128.213 0 .384-.043.512-.128a.84.84 0 00.304-.336c.069-.139.114-.299.136-.48a4.86 4.86 0 000-1.12 1.472 1.472 0 00-.136-.48.84.84 0 00-.304-.336c-.128-.085-.299-.128-.512-.128zm4.191-.512c.517 0 .915.171 1.192.512.283.336.424.803.424 1.4v.256h-2.656c0 .432.096.768.288 1.008.197.235.488.352.872.352.229 0 .419-.035.568-.104.155-.075.309-.189.464-.344l.392.344a2.754 2.754 0 01-.304.264 1.57 1.57 0 01-.32.192 1.886 1.886 0 01-.368.112c-.133.027-.283.04-.448.04-.261 0-.499-.04-.712-.12a1.373 1.373 0 01-.544-.368 1.676 1.676 0 01-.344-.624 3.041 3.041 0 01-.12-.904c0-.645.144-1.141.432-1.488.288-.352.683-.528 1.184-.528zm0 .488c-.213 0-.4.053-.56.16a1.06 1.06 0 00-.36.432 1.106 1.106 0 00-.064.152l-.032.136-.016.16c0 .059-.003.128-.008.208h2.088c-.005-.08-.011-.149-.016-.208a1.152 1.152 0 00-.024-.16.551.551 0 00-.032-.136 1.041 1.041 0 00-.424-.584.947.947 0 00-.552-.16zm4.522-.488c.187 0 .355.027.504.08.155.053.302.149.44.288l-.424.432a1.043 1.043 0 00-.304-.224.928.928 0 00-.376-.064.944.944 0 00-.392.08.822.822 0 00-.296.224c-.08.096-.144.208-.192.336a1.328 1.328 0 00-.064.416v2.416h-.576v-3.936h.576v.48c.107-.165.259-.293.456-.384.203-.096.419-.144.648-.144z" fill="#202B78"/><defs><clipPath id="clip0_8251_15856"><path fill="#fff" d="M0 0h26.75v26.75H0z"/></clipPath><clipPath id="clip1_8251_15856"><path fill="#fff" d="M0 0h26.75v26.75H0z"/></clipPath></defs></svg>